<svg id="visual" viewBox="0 0 900 900" width="60" height="60" xmlns="http://www.w3.org/2000/svg" xmlns:xlink="http://www.w3.org/1999/xlink" version="1.1"><path d="M0 370L75 319C150 268 300 166 450 164.5C600 163 750 262 825 311.5L900 361L900 0L825 0C750 0 600 0 450 0C300 0 150 0 75 0L0 0Z" fill="#fff700"></path><path d="M0 451L75 398.5C150 346 300 241 450 239.5C600 238 750 340 825 391L900 442L900 359L825 309.5C750 260 600 161 450 162.5C300 164 150 266 75 317L0 368Z" fill="#ffb500"></path><path d="M0 532L75 485.5C150 439 300 346 450 347.5C600 349 750 445 825 493L900 541L900 440L825 389C750 338 600 236 450 237.5C300 239 150 344 75 396.5L0 449Z" fill="#ff7100"></path><path d="M0 613L75 601C150 589 300 565 450 565C600 565 750 589 825 601L900 613L900 539L825 491C750 443 600 347 450 345.5C300 344 150 437 75 483.5L0 530Z" fill="#ff0000"></path><path d="M0 631L75 629.5C150 628 300 625 450 634C600 643 750 664 825 674.5L900 685L900 611L825 599C750 587 600 563 450 563C300 563 150 587 75 599L0 611Z" fill="#ff0000"></path><path d="M0 802L75 797.5C150 793 300 784 450 778C600 772 750 769 825 767.5L900 766L900 683L825 672.5C750 662 600 641 450 632C300 623 150 626 75 627.5L0 629Z" fill="#ff7100"></path><path d="M0 856L75 848.5C150 841 300 826 450 820C600 814 750 817 825 818.5L900 820L900 764L825 765.5C750 767 600 770 450 776C300 782 150 791 75 795.5L0 800Z" fill="#ffb500"></path><path d="M0 901L75 901C150 901 300 901 450 901C600 901 750 901 825 901L900 901L900 818L825 816.5C750 815 600 812 450 818C300 824 150 839 75 846.5L0 854Z" fill="#fff700"></path></svg>